<svg width="562" height="242" viewBox="0 0 562 242" fill="none" xmlns="http://www.w3.org/2000/svg">
<path d="M21.5 211.5V142C21.5 142 10.7237 142.524 6 138.5C1.6083 134.759 0 128.5 0 125V13.5C0 13.5 7.43866e-05 0 16.5 4.92649e-06H539C554 4.91159e-06 562 6.00001 562 18.5V225C562 229.5 555.5 244 539 241.5C522.5 239 96.5 157 96.5 157L21.5 211.5Z" fill="white"/>
<path d="M550 219C550 219 546 233.054 532.5 230.5C519 227.946 496 222.5 496 222.5" stroke="#E3A224" stroke-width="3" stroke-linecap="round"/>
</svg>
